<mxfile host="app.diagrams.net" modified="2023-06-20T07:28:08.512Z" agent="Mozilla/5.0 (Macintosh; Intel Mac OS X 10_15_7) AppleWebKit/537.36 (KHTML, like Gecko) Chrome/114.0.0.0 Safari/537.36" version="21.3.8" etag="25N4i09gRDpF0Eqe9qOU" type="github">
  <diagram name="Page-1" id="fBbdxLJnFOpM5yBb2x54">
    <mxGraphModel>
      <root>
        <mxCell id="0" />
        <mxCell id="1" parent="0" />
      </root>
    </mxGraphModel>
  </diagram>
</mxfile>
